# xmcd
#
# Track frame offsets:
#	150
#	27404
#	30135
#	45019
#	63108
#	83954
#	106247
#	130366
#	143343
#	155153
#	179139
#
# Disc length: 2726 seconds
#
# Revision: 1
# Processed by: cddbd v1.4PL0 Copyright (c) Steve Scherf et al.
# Submitted via: audiograbber 1.81.02
#
DISCID=840aa40b
DTITLE=Gilbert Bécaud - Olympia 97 cd 1
DYEAR=1900
DGENRE=
TTITLE0=La vente aux enchères
TTITLE1=Seul Sur Son étoile
TTITLE2=Je t'appartiens
TTITLE3=De Only You A Maintenant
TTITLE4=Le petit oiseau de toutes les couleurs
TTITLE5=Desperado
TTITLE6=Un peu d'amour et d'amitié
TTITLE7=Madame Roza
TTITLE8=Quand Jules Est Au Violon
TTITLE9=De L'autre Côté de La Riviere
TTITLE10=Les Caraïbes
EXTD=
EXTT0=
EXTT1=
EXTT2=
EXTT3=
EXTT4=
EXTT5=
EXTT6=
EXTT7=
EXTT8=
EXTT9=
EXTT10=
PLAYORDER=
